/* XPM */
static char *e2850d5257004def99e9863b2a8f91b9OltOQDhWhrNIJNgG[] = {
/* columns rows colors chars-per-pixel */
"25 24 212 2 ",
"   c #64472A",
".  c #6F4F2F",
"X  c #7A4764",
"o  c #F73910",
"O  c #F73C12",
"+  c #F73C14",
"@  c #DE3E23",
"#  c #93683E",
"$  c #976B3F",
"%  c #F74015",
"&  c #F1401D",
"*  c #F7451F",
"=  c #F84418",
"-  c #F84B1E",
";  c #D64D3B",
":  c #C35D34",
">  c #C65F35",
",  c #F04B27",
"<  c #F84822",
"1  c #F84C27",
"2  c #F85021",
"3  c #F95424",
"4  c #F45A2F",
"5  c #F65B2E",
"6  c #F95B29",
"7  c #F95D2D",
"8  c #F85A37",
"9  c #F85D3B",
"0  c #F95E3D",
"q  c #FA622E",
"w  c #F96533",
"e  c #FA6A34",
"r  c #FA6F3C",
"t  c #AC484A",
"y  c #A5525A",
"u  c #B07D4A",
"i  c #9B5F71",
"p  c #CA625B",
"a  c #D76357",
"s  c #D66458",
"d  c #F96241",
"f  c #F96444",
"g  c #F96748",
"h  c #F96949",
"j  c #F9694A",
"k  c #F86A4D",
"l  c #FA7947",
"z  c #FA7E48",
"x  c #F67054",
"c  c #F97053",
"v  c #F97457",
"b  c #F3775F",
"n  c #F9765A",
"m  c #D47C6F",
"M  c #C6787B",
"N  c #FA7E63",
"B  c #AF8154",
"V  c #B38455",
"C  c #C18951",
"Z  c #D29558",
"A  c #D8995A",
"S  c #DD9D5D",
"D  c #FC8245",
"F  c #FD8F4F",
"G  c #FA8354",
"H  c #FD9050",
"J  c #FB955A",
"K  c #FB965B",
"L  c #FD9D5A",
"P  c #FB985D",
"I  c #EC8C63",
"U  c #EA8372",
"Y  c #F78A73",
"T  c #FA8F78",
"R  c #FA9078",
"E  c #FB957F",
"W  c #EEA964",
"Q  c #FCA265",
"!  c #FEAA63",
"~  c #FFAE66",
"^  c #FCAD6E",
"/  c #FFB369",
"(  c #FFB46A",
")  c #FFB56B",
"_  c #EFA874",
"`  c #E6AA7F",
"'  c #F8B574",
"]  c #FDB776",
"[  c #FDBA79",
"{  c #FDBB79",
"}  c #FEB97F",
"|  c #416FB2",
" . c #4573B6",
".. c #4674B6",
"X. c #4B78B9",
"o. c #4D7ABB",
"O. c #867A9E",
"+. c #6CB6A0",
"@. c #77B8B5",
"#. c #6F93C7",
"$. c #6E99D2",
"%. c #729CD5",
"&. c #BF828C",
"*. c #A7968E",
"=. c #B38393",
"-. c #8282A8",
";. c #8288AE",
":. c #9697A3",
">. c #B194AA",
",. c #BF9BAA",
"<. c #BEADA1",
"1. c #C08189",
"2. c #DC908B",
"3. c #C79694",
"4. c #C09398",
"5. c #EB998E",
"6. c #FB9680",
"7. c #FB9A85",
"8. c #DAAB81",
"9. c #DBB796",
"0. c #FBA18C",
"q. c #E6B689",
"w. c #E7B78E",
"e. c #EAB78A",
"r. c #FBA390",
"t. c #FBA491",
"y. c #FCA997",
"u. c #E6BB92",
"i. c #FCB39B",
"p. c #FCB09F",
"a. c #C9AAA2",
"s. c #CAB7AD",
"d. c #CBB8AA",
"f. c #C5BBB6",
"g. c #C2BBB9",
"h. c #F6B3A7",
"j. c #FCB3A3",
"k. c #FCB9AA",
"l. c #FCBDAF",
"z. c #FDC48B",
"x. c #FDCB98",
"c. c #FCC0AF",
"v. c #FED4AA",
"b. c #FCC1B4",
"n. c #FDC2B5",
"m. c #FDC6BA",
"M. c #FDC8BC",
"N. c #FDCABF",
"B. c #E9D3BF",
"V. c #FEDAB7",
"C. c #FFDDBB",
"Z. c #8F9DC7",
"A. c #85A1CB",
"S. c #81B9C9",
"D. c #8FABD8",
"F. c #9BB0D9",
"G. c #98B4D9",
"H. c #A6A2C2",
"J. c #A5A3C4",
"K. c #A6AAC9",
"L. c #B7B9C1",
"P. c #B7BBC5",
"I. c #ACBBD1",
"U. c #A5BBD8",
"Y. c #A4BBD9",
"T. c #A4BBDA",
"R. c #AAB8DA",
"E. c #83ACE1",
"W. c #84ADE1",
"Q. c #87B0E4",
"!. c #8CB3E4",
"~. c #9AB7E2",
"^. c #96B9E7",
"/. c #96BAE9",
"(. c #93BBEC",
"). c #94BBEC",
"_. c #95BCEC",
"`. c #C0B1C4",
"'. c #BFC3DC",
"]. c #A3C5EF",
"[. c #A8C5EC",
"{. c #AACAF0",
"}. c #B0CDF1",
"|. c #BFD7F4",
" X c #E4D6CB",
".X c #FDD0C6",
"XX c #FDD6CE",
"oX c #FEDAD3",
"OX c #FEDDD6",
"+X c #FEE3C7",
"@X c #FEE3C8",
"#X c #FEE1D3",
"$X c #FEE3DD",
"%X c #FEE5DF",
"&X c #D0DBEF",
"*X c #C6DBF5",
"=X c #D5E5F8",
"-X c #F4E4E5",
";X c #FEE7E3",
":X c #F9E7E6",
">X c #FEEBE7",
",X c #FEECE5",
"<X c #FEEEEA",
"1X c #E4E8F2",
"2X c #ECEFF6",
"3X c #E6EFFB",
"4X c #EFF5FC",
"5X c #F3F5FA",
"6X c #F4F8FD",
"7X c #FFFAF9",
"8X c #FFFEFC",
"9X c white",
/* pixels */
"(.(.(.@.+.+.+.+.+.+.S.(.(.(.(.(._._.(.(.(.(.(.(.o.",
"| X.o.o.o.o.o.o.o.o.o.o. ...o.o.o.X.o.o.o.o.o.o. .",
"#.Q.(.(.(.(.(.(.(.(.(.(.$.%.(.(.(.(.(.(.(.(.(.(.$.",
"A.Q.(.(.(.(.(.(.(.(.(.(.$.%.(.(.(.(.(.(.(.(.(.(.!.",
"-.Q.(.(.(.(.(.(.(.(.(.(.$.%.(.(._._.(.(.(.(.(.(.Q.",
"X Q.(.(.(.(.(.(.(.(.(.(.$.%.(.(._._.(.(.(.(.(.(.W.",
";.Q.(.(.(.(.(.(.(.(.(.(.$.%.(.(._._.(.(.(.(.(.(.W.",
"X Q.(.(.(.}.*X*X].(.(.(.$.%.(.I.G.f.T.P.(.(.(.(.W.",
"X Q._.^.1X5X9X9X2X&X/.).$.%./.s.e.] e.w./.(.(.(.E.",
"X !.=Xc o y.N.oXn o r.|.$.%.&.o o o o o a F.(.(.E.",
"X ^.9Xc 8 7.* 8 r.+ r.6X$.%.M o + > : + o s _._.E.",
"X ; T $X<XT o o n.;X$Xk y %.~.m P V B K r 5 _._.E.",
"X @ o N.9Xn.* 9 OX8X6.o t %.G.u.{ { { ^ K 5 >.(.E.",
"X @ o m.9X9X.XOX8X8X6.o t %.U.I 7 z { { [ 6 a (.E.",
"X p p.XX/ . A $ u e.$XY i %.U.I w { { Q o o a (.E.",
"X G. X,.^ C W Z S ^ g. X%.%._.3.l v.{ G x o a (.E.",
"X 8.' L.! ~   # ! ` d.( *.$.J., c.x.+X#X,Xf a (.E.",
"X <.q.H o q D D 2 - L 9.:.%.a.K V.+X+X} C.j a (.E.",
"X Q.4.= o e F F 3 o < K.$.%.g.{ { { { z.i.- a (.E.",
"X Q.1.o 6 ( ( ( / O O J.$.%._.].U 0.9X8Xk.x [.(.E.",
"X Q.>.5.p.C.C.C.C.t.2.F.$.%.].3X9X9X9X9X9X9X4X{.E.",
"X W.'.:X9X9X9X9X9X7X-XR.$.%.}.9X9X>X>X>X>X7X9X*XE.",
"X =.f o N.9X9X9X9XE o b O.%.h.j.y.o o o o E j.j.D.",
"X ; 9 o 1 m.9X9Xt.+ o j t %.& + o g l.l.N o o o Z."
};
