/* XPM */
static char *e32c3127a8594da7d00bb3e6036b12ecVX3d5E4UB3GNMfPL[] = {
/* columns rows colors chars-per-pixel */
"23 23 204 2 ",
"   c #64472A",
".  c #6F4F2F",
"X  c #F73910",
"o  c #F73B12",
"O  c #F73C12",
"+  c #F73C14",
"@  c #DE3E23",
"#  c #93683E",
"$  c #976B3F",
"%  c #F74015",
"&  c #F1401D",
"*  c #F7451F",
"=  c #F84418",
"-  c #F84B1E",
";  c #F84D1F",
":  c #DF4830",
">  c #D64D3B",
",  c #C35D34",
"<  c #C65F35",
"1  c #F84620",
"2  c #F04B27",
"3  c #F84822",
"4  c #F84C27",
"5  c #F85021",
"6  c #F95424",
"7  c #F45A2F",
"8  c #F65B2E",
"9  c #F85829",
"0  c #F95B29",
"q  c #F95D2D",
"w  c #F85A37",
"e  c #F85A38",
"r  c #F85D3B",
"t  c #F95E3D",
"y  c #FA622E",
"u  c #F96533",
"i  c #FA6A34",
"p  c #FA6F3C",
"a  c #AC484A",
"s  c #A5525A",
"d  c #B07D4A",
"f  c #9B5F71",
"g  c #CA625B",
"h  c #D76357",
"j  c #D66458",
"k  c #F96444",
"l  c #F96748",
"z  c #F96949",
"x  c #F86A4D",
"c  c #FA7947",
"v  c #FA7E48",
"b  c #F67054",
"n  c #F97053",
"m  c #F97457",
"M  c #F3775F",
"N  c #F9765A",
"B  c #D47C6F",
"V  c #C6787B",
"C  c #FA7E63",
"Z  c #AF8154",
"A  c #B38455",
"S  c #C18951",
"D  c #D29558",
"F  c #D8995A",
"G  c #DD9D5D",
"H  c #FC8245",
"J  c #FD8F4F",
"K  c #FA8354",
"L  c #FD9050",
"P  c #FB955A",
"I  c #FD9D5A",
"U  c #FB985D",
"Y  c #FEA55F",
"T  c #EC8C62",
"R  c #EA8372",
"E  c #F78A73",
"W  c #FA8F78",
"Q  c #FB957F",
"!  c #EEA964",
"~  c #FCA265",
"^  c #FEAA63",
"/  c #FFAE66",
"(  c #FCAD6E",
")  c #FFB369",
"_  c #FFB56B",
"`  c #EFA874",
"'  c #E6AA7F",
"]  c #F8B574",
"[  c #FDB776",
"{  c #FDBA79",
"}  c #FDBB79",
"|  c #FEB97F",
" . c #4573B6",
".. c #4674B6",
"X. c #4B78B9",
"o. c #4D7ABB",
"O. c #867A9E",
"+. c #6E99D2",
"@. c #729CD5",
"#. c #BF828C",
"$. c #A7968E",
"%. c #B38393",
"&. c #9697A3",
"*. c #B194AA",
"=. c #BF9BAA",
"-. c #BEADA1",
";. c #C08189",
":. c #DC908B",
">. c #C79694",
",. c #C09398",
"<. c #EB998E",
"1. c #FB9680",
"2. c #FB9A85",
"3. c #DAAB81",
"4. c #DBB796",
"5. c #FBA18C",
"6. c #E6B689",
"7. c #E7B78E",
"8. c #EAB78A",
"9. c #ECB788",
"0. c #FBA491",
"q. c #FCA997",
"w. c #FCAB99",
"e. c #E6BB92",
"r. c #FCB39B",
"t. c #FCB09F",
"y. c #FCB49D",
"u. c #C9AAA2",
"i. c #CAB7AD",
"p. c #CBB8AA",
"a. c #C5BBB6",
"s. c #C2BBB9",
"d. c #F6B3A7",
"f. c #FCB3A3",
"g. c #FCB9AA",
"h. c #FCBDAF",
"j. c #FDC48B",
"k. c #FDCB98",
"l. c #FED4AA",
"z. c #FCC1B4",
"x. c #FDC6BA",
"c. c #FDCABF",
"v. c #FEDAB7",
"b. c #FEDBB9",
"n. c #FFDDBB",
"m. c #9BB0D9",
"M. c #9BB1DB",
"N. c #98B4D9",
"B. c #A7A1C0",
"V. c #A5A3C4",
"C. c #A6AAC9",
"Z. c #B7B9C1",
"A. c #B7BBC5",
"S. c #ACBBD1",
"D. c #A5BBD8",
"F. c #A4BBDA",
"G. c #A1BBDD",
"H. c #AAB8DA",
"J. c #88AEE0",
"K. c #87B0E4",
"L. c #8CB3E4",
"P. c #9AB7E2",
"I. c #96B9E7",
"U. c #98BAE6",
"Y. c #94BAEA",
"T. c #94BBEB",
"R. c #93BBEC",
"E. c #94BBEC",
"W. c #95BCEC",
"Q. c #C0B1C4",
"!. c #BFC3DC",
"~. c #A0C3EE",
"^. c #A3C5EF",
"/. c #A4C4EC",
"(. c #AACAF0",
"). c #B0CDF1",
"_. c #BFD7F4",
"`. c #E4D6CB",
"'. c #FDD0C6",
"]. c #FDD6CE",
"[. c #FEDDD6",
"{. c #FDDED7",
"}. c #FEE3C7",
"|. c #FEE3C8",
" X c #FEE1D3",
".X c #FEE3DD",
"XX c #FEE5DF",
"oX c #D0DBEF",
"OX c #C6DBF5",
"+X c #D5E5F8",
"@X c #F4E4E5",
"#X c #F9E7E6",
"$X c #FEEBE7",
"%X c #FEECE5",
"&X c #FEEEEA",
"*X c #E4E8F2",
"=X c #ECEFF6",
"-X c #E6EFFB",
";X c #EFF5FC",
":X c #F3F5FA",
">X c #F4F8FD",
",X c #FFFAF9",
"<X c #FFFDFC",
"1X c white",
/* pixels */
"X.o.o.o.o.o.o.o.o.o.o. ...o.o.o.o.o.o.o.o.o.o.",
"K.R.R.R.R.R.R.R.R.R.R.+.@.R.R.R.R.R.R.R.R.R.R.",
"K.R.R.R.R.R.R.R.R.R.R.+.@.R.R.R.R.R.R.R.R.R.R.",
"K.R.R.R.R.R.R.R.R.R.R.+.@.R.R.R.R.R.R.R.R.R.R.",
"K.R.R.R.R.R.R.R.R.R.R.+.@.R.R.R.R.R.R.R.R.R.R.",
"K.R.R.R.R.R.R.R.R.R.R.+.@.R.R.R.R.E.R.R.R.R.R.",
"K.R.R.R.).OXOX^.R.R.R.+.@.R.S.G.a.F.A.R.R.R.R.",
"K.W.I.*X:X1X1X=XoXY.E.+.@.Y.i.8.[ 9.7.Y.R.R.R.",
"L.+Xn X q.c.{.N X 5._.+.@.;.X X X X X j N.E.R.",
"U.1Xn w 2.* w 5.+ 0.>X+.@.V X O < , % X h E.R.",
"> W XX&XW X X z.$X.Xx s @.P.B U A Z P p 7 E.E.",
"@ X c.1Xh.* r {.1XQ X a @.G.e.{ } } ( P 8 *.R.",
"@ X '.1X1X'.{.1X1XQ X a @.F.T q v { } { 9 h R.",
"g w.].) . F $ d { .XE f @.F.T u { { ~ X X j R.",
"N.`.=.) S ! D G ` Q.`.+.@.R.>.c l.{ K m X h R.",
"3.] Z.Y /   # ^ ' p._ $.@.B.2 z.k.}. X%Xk h R.",
"-.6.L X y H H 5 ; I 4.&.+.u.P v.}.}.| v.z j T.",
"K.,.= O i L L 6 X 3 C.+.@.s.} } } } j.r.3 j T.",
"K.%.+ q ) _ ) ) X X V.+.@.T.^.R 5.1X<Xg.b ^.T.",
"K.*.<.f.n.n.n.n.0.:.m.+.@.~.-X1X1X1X1X1X1X;X(.",
"J.!.#X1X1X1X1X1X,X@XH.+.@.).1X1X$X$X$X$X,X1XOX",
"%.k X c.1X1X1X1X1.X C O.@.d.f.w.X X X X Q f.f.",
": t X 4 x.1X1X5.X X z a @.& X X k h.h.C X X X "
};
