/* XPM */
static char *e4dd6595b3c44d5ae2cca699d3eae04dG8Me4srFYqW4HWkl[] = {
/* columns rows colors chars-per-pixel */
"24 24 94 2 ",
"   c #447547",
".  c #495464",
"X  c #4C5767",
"o  c #4F5969",
"O  c #557A67",
"+  c #557E69",
"@  c #F73910",
"#  c #F73B12",
"$  c #F7421B",
"%  c #EF4422",
"&  c #EE4525",
"*  c #EC4728",
"=  c #F84A25",
"-  c #F84F2A",
";  c #F8522E",
":  c #E74E34",
">  c #E95636",
",  c #F85532",
"<  c #F85B39",
"1  c #F85C3A",
"2  c #DA5E4F",
"3  c #F96040",
"4  c #F96343",
"5  c #F96545",
"6  c #F96A4B",
"7  c #E8755E",
"8  c #F97052",
"9  c #FA775B",
"0  c #FA785C",
"q  c #C7787A",
"w  c #FA7D62",
"e  c #279F19",
"r  c #23A813",
"t  c #29AD19",
"y  c #3F8240",
"u  c #46814C",
"i  c #4E834E",
"p  c #FA8066",
"a  c #85C77C",
"s  c #40669D",
"d  c #446CA7",
"f  c #4270B3",
"g  c #4573B5",
"h  c #4D76B4",
"j  c #4D7ABB",
"k  c #5378B1",
"l  c #547BB4",
"z  c #547CB7",
"x  c #C37C82",
"c  c #7C858A",
"v  c #6D8DB8",
"b  c #7F9BBE",
"n  c #5F8BC8",
"m  c #6490CB",
"M  c #6D98D1",
"N  c #739ED6",
"B  c #7CA5DB",
"V  c #7DA6DC",
"C  c #979A9F",
"Z  c #B98A99",
"A  c #8F97A1",
"S  c #A9A9A9",
"D  c #A3AEBA",
"F  c #FB9D89",
"G  c #FCBFB1",
"H  c #FDC7BC",
"J  c #83A1C7",
"K  c #84A3C9",
"L  c #85A5CD",
"P  c #89A5C8",
"I  c #89ABD4",
"U  c #8BAFDA",
"Y  c #A5A4C5",
"T  c #A1A9CE",
"R  c #B5BBC1",
"E  c #98BBE7",
"W  c #92BAEA",
"Q  c #93BBEB",
"!  c #93BBEC",
"~  c #94BBEC",
"^  c #95BCEC",
"/  c #B2CAE8",
"(  c #BCD5F3",
")  c #C0C5CC",
"_  c #D2D2D2",
"`  c #FEDED7",
"'  c #FEE3DD",
"]  c #C7D8EC",
"[  c #C8D9ED",
"{  c #D1E2F7",
"}  c #FEE7E1",
"|  c #FEEBE7",
" . c #FEF0ED",
".. c gray95",
/* pixels */
"f g j j j j d s j j j j j j j j z z z l k h j j ",
"N M ! ! ! I A i b ! ! ! ! ! ~ ~ ! ! ! ! ! ! ! ! ",
"N M ! ! W c a t y J ! ! ! ! W ^ ! ! ! ! ! ! ! ! ",
"N M ! ! W O e r u L ! ! ! ! ! ! ! ! ! ! ! ! ! ! ",
"N M ! ! ! U +   K ! ^ ! ! ! ! ! ! ! ! ! ! ! ! ! ",
"N M ! ! ! ! [ > & & & & & & & & & * x ! ! ! ! ! ",
"N M ! ! ! ! { , # 0 w @ @ @ 0 p @ % ! ! ! ! ! ! ",
"N M ! ! ! ! { , # 1  .p @ 9  .5 @ Z ! ! ! ! ! ! ",
"N M ! ! ! ! { , @ @ | ' F } | $ : T ^ ! ! ! ! ! ",
"N M ! ! ! ! { , @ @ H 5 ` 6 G $ x W ! ! ! ! ! ! ",
"N M ! ! ! ! { , @ @ H @ = @ G $ % Y ! ! ! ! ! ! ",
"N M ! ! ! ! { , @ 0 ` 3 @ < ` w # q ! ! ! ! ! ! ",
"N M ! ! ! ! { , @ 3 8 ; @ - 8 5 # % W ! ! ! ! ! ",
"N M ! ! ! ! { 7 2 2 2 2 2 2 2 2 2 2 x ! ! ! ! ! ",
"N M ! ! ! ! { ) W ! ! ! ! ! W ! ! ! ! ! ! ! ! ! ",
"N M ! ! ! ! { ) ! ! ! ! ! ! ! ! ! ! ! ! ! ! ! ! ",
"N M ! ! ! ! { ) ! ! ! ! ! ! ! ! ! ! ! ! ! ! ! ! ",
"N M ! ! ! ! { ) ! ! ! ! ! ! ! ! ! ! ! ! ! ! ! ! ",
"N M ! ! ! ! { ) ! ! ! ! ! ! ! ! ! ! ! ! ! ! ! ! ",
"N M ! ! ! ! { ) ! ! ! ! ! ! ! ! ! ! ! ! ! ! ! ! ",
"N M ! ! ! ! ] R ! ! ! ! ! ! ! ! ! ! ! ! ! ! ! ! ",
"N M ! ! ! ( D C / E ! ! ! ! ! ! ! ! ! ! ! ! ! ! ",
"N M ! ! ! .._ _ S P ! ! ! ! ! ! ! ! ! ! ! ! ! ! ",
"m n V V V o X X . v V V V V V V V V V V V V V V "
};
