/* XPM */
static char *_44998ca402e4d3587a625bafc1b1d62hdZfdt8wxSA8qQ6n[] = {
/* columns rows colors chars-per-pixel */
"25 24 188 2 ",
"   c black",
".  c #060100",
"X  c #150501",
"o  c #1C0702",
"O  c #100C03",
"+  c #1F0B05",
"@  c #041402",
"#  c #051A02",
"$  c #071B03",
"%  c #0F1C03",
"&  c #1B1605",
"*  c gray12",
"=  c #250802",
"-  c #320C03",
";  c #350C03",
":  c #370D04",
">  c #3F0F04",
",  c #0E2104",
"<  c #082A04",
"1  c #0B3B05",
"2  c #1F2B1E",
"3  c #1F361D",
"4  c #1F3C1C",
"5  c #252D0A",
"6  c #362C09",
"7  c #3A2F0A",
"8  c #29330B",
"9  c #2C330B",
"0  c #2C350C",
"q  c #33350C",
"w  c #34370C",
"e  c #37360C",
"r  c #3B310A",
"t  c #31390C",
"y  c #353B0F",
"u  c #253015",
"i  c #293516",
"p  c #363C10",
"a  c #282B20",
"s  c #4D1205",
"d  c #531305",
"f  c #651707",
"g  c #731A07",
"h  c #7A1C08",
"j  c #46360B",
"k  c #1F411B",
"l  c #3C480C",
"z  c #20471B",
"x  c #24411C",
"c  c #204D1A",
"v  c #314D1F",
"b  c #20511A",
"n  c #205519",
"m  c #205B19",
"M  c #187C0B",
"N  c #187D0C",
"B  c #247D0D",
"V  c #206D17",
"C  c #206318",
"Z  c #206418",
"A  c #35621D",
"S  c #337D1A",
"D  c #5D4C10",
"F  c #655011",
"G  c #715D14",
"H  c #427F11",
"J  c #7A6415",
"K  c #7F6816",
"L  c #786118",
"P  c #435323",
"I  c #77592A",
"U  c #446721",
"Y  c #4D6623",
"T  c #476F21",
"R  c #477320",
"E  c #243246",
"W  c #2F4F6D",
"Q  c #23526A",
"!  c #2F5171",
"~  c #2C7E6E",
"^  c #4C7952",
"/  c #507755",
"(  c #656B56",
")  c #436777",
"_  c #912209",
"`  c #95220A",
"'  c #98230A",
"]  c #8C390B",
"[  c #B42A0C",
"{  c #B52A0C",
"}  c #B82A0C",
"|  c #C52E0D",
" . c #CB2F0D",
".. c #E1340F",
"X. c #E4350F",
"o. c #E9360F",
"O. c #F73910",
"+. c #AD5C15",
"@. c #9B6B17",
"#. c #9F6917",
"$. c #897018",
"%. c #8C7318",
"&. c #907118",
"*. c #9E741F",
"=. c #96791F",
"-. c #907C1F",
";. c #977331",
":. c #A17F27",
">. c #CE4F13",
",. c #D04411",
"<. c #C15614",
"1. c #CC5013",
"2. c #E74211",
"3. c #F74015",
"4. c #F84217",
"5. c #F84E20",
"6. c #F95423",
"7. c #E0682B",
"8. c #E86D32",
"9. c #F5743A",
"0. c #915352",
"q. c #A24A52",
"w. c #208314",
"e. c #208215",
"r. c #208714",
"t. c #218D13",
"y. c #218B14",
"u. c #278B15",
"i. c #219113",
"p. c #2C9016",
"a. c #219812",
"s. c #249A13",
"d. c #219E12",
"f. c #21A011",
"g. c #21A711",
"h. c #21AD10",
"j. c #2AB012",
"k. c #3AB516",
"l. c #3EB717",
"z. c #51AE1C",
"x. c #56AC1E",
"c. c #40B517",
"v. c #41B817",
"b. c #48B519",
"n. c #48BA19",
"m. c #53BE1B",
"M. c #57BF1C",
"N. c #6EBC22",
"B. c #63C31F",
"V. c #64C31F",
"C. c #77C923",
"Z. c #268251",
"A. c #288C52",
"S. c #5B867D",
"D. c #608D7E",
"F. c #64907B",
"G. c #B48A35",
"H. c #BE8F3C",
"J. c #BF903D",
"K. c #8BB72A",
"L. c #8BB92A",
"P. c #8BCF28",
"I. c #8BD028",
"U. c #96D42A",
"Y. c #A1C62C",
"T. c #A4D82D",
"R. c #B5DE31",
"E. c #998241",
"W. c #98887B",
"Q. c #C79543",
"!. c #CB9746",
"~. c #CE9947",
"^. c #C8914D",
"/. c #D19B4A",
"(. c #D79E4E",
"). c #C78E54",
"_. c #DBA153",
"`. c #EBAA5D",
"'. c #F7B166",
"]. c #FCB369",
"[. c #FEB46A",
"{. c #2D4F83",
"}. c #3261A8",
"|. c #447298",
" X c #5E739B",
".X c #5C8082",
"XX c #7F8191",
"oX c #A69185",
/* pixels */
"}.}.}.}.}.}.}.}.}.}.}.}.}.}.}.}.}.}.}.}.}.}.}.}.}.",
"{. XXX.X~ ~ ~ ~ ~ Q W F.! |.F.F.F.F.F.F.F.F.F.F.) ",
"E oX[.E.1 1 1 1 1 @ 8 R.i D.C.m.m.m.m.m.m.m.m.m.A ",
"E W.^.+ : f o.o.o.g 9 R.i D.M.g.i.y.y.y.y.y.g.h.m ",
"E ( J - h 8.7.9.<.<.w R.i D.M.i.k Z 3 Z u Z x.h.m ",
"E ( $.;.)._.~.].J.Q.p R.i D.M.i.C g.c h.k h.I.l.Y ",
"E / -.(.(.:.`.'.G.!.y R.i D.M.i.Z g.b h.c h.I.e.* ",
"E A.l %.H.(.`.[.[.I 0 R.i D.M.i.Z g.c h.z h.I.e.* ",
"E A.# 6 L =.=./.*.<.q R.i .XB.a.Z g.k h.k h.P.y.2 ",
"E A.#     +.%.&.<.#.t R.i S.M.a.Z h.b h.k h.P.h.m ",
"E A.#     ,.&.@.>.%.q R.i D.M.g.x.I.L.I.P.P.T.h.m ",
"E A.#     > 5.3.>.%.t R.i D.m.j.n.p.h.h.h.h.h.h.m ",
"E A.#     > 6.4.2.>.w R.i D.M.l.R.P h.h.h.h.h.h.m ",
"E A.#     ; X.O.O.O.e R.i D.M.s.v i h.h.h.h.h.h.m ",
"E A.#     o } O.O.O.e R.i D.M.f.V V V V V V a.h.m ",
"E A.# s { | O.O.O.O.w R.i D.M.i.n e.k r.4 y.N.h.m ",
"E ^ ,.O.O.O.O.O.O.| w R.i S.M.i.Z g.c h.z h.I.h.m ",
"E q.O.O.O.O.O.O.O.d 8 R.i F.M.i.C g.c h.z h.I.k.U ",
"E 0.O.O.h = ' O.O.d 8 R.i D.M.i.C g.k h.z h.I.u.a ",
"E A.] O.O.. d o.O.` w R.i D.M.i.C g.n h.z h.I.r.* ",
"E A.% _ O.j    .O.O.e R.i F.M.i.Z g.c h.z h.I.e.* ",
"E A.# O F $.7 X [ ..e R.i S.M.a.S b.R n.T n.U.h.m ",
"E A., D K r &     s 0 R.i .XM.h.v.V.V.V.V.V.V.h.m ",
"E Z.B G H N M M N < 8 Y.i S.z.d.d.d.d.d.d.d.d.d.n "
};
