/* XPM */
static char *b5eeefad3c904f69ef25d89ad7cc62c3dbxpoPQxxQKSheRp[] = {
/* columns rows colors chars-per-pixel */
"23 22 79 1 ",
"  c gray12",
". c gray14",
"X c #343434",
"o c #363637",
"O c #3A3A3A",
"+ c #3C3C3C",
"@ c gray24",
"# c #353B42",
"$ c gray25",
"% c gray26",
"& c #444444",
"* c #464646",
"= c gray28",
"- c gray29",
"; c #4C4C4C",
": c gray31",
"> c #505050",
", c #535353",
"< c gray33",
"1 c #585858",
"2 c #5A5A5A",
"3 c #5B5B5B",
"4 c gray37",
"5 c #575D65",
"6 c #5A636E",
"7 c #5C646F",
"8 c #54667C",
"9 c #606060",
"0 c #626262",
"q c #676767",
"w c DimGray",
"e c gray43",
"r c #6F6F6F",
"t c #656D77",
"y c #717272",
"u c gray45",
"i c #727375",
"p c #757779",
"a c #797979",
"s c #797B7F",
"d c #7B7F83",
"f c #6B7C91",
"g c #4D7ABB",
"h c #7B8087",
"j c #7D838B",
"k c #7F8792",
"l c #7B96B6",
"z c #808080",
"x c #8B8B8B",
"c c #808A97",
"v c #808C99",
"b c #8496AB",
"n c #8597AE",
"m c #869AB3",
"M c #89A1BE",
"N c #A0A0A0",
"B c gray66",
"V c #A9A9A9",
"C c #AFAFAF",
"Z c #BCBCBC",
"A c #8AA3C3",
"S c #8AA4C3",
"D c #81A2CB",
"F c #8BA6C8",
"G c #89ABD5",
"H c #8FB1DA",
"J c #90B4E1",
"K c #90B6E5",
"L c #92B9E8",
"P c #93BAEB",
"I c #93BBEC",
"U c #C3C3C3",
"Y c #D7D7D7",
"T c gray86",
"R c gray91",
"E c gray92",
"W c gray93",
"Q c #F1F1F1",
"! c gray97",
/* pixels */
"gIIIIIIIIIIIIIIIPPDtxz8",
"gIG777777777777777#%33o",
"gI5*@;;;;;;;;;;-@&qQER!",
"gI5O ;;;;;;;;;;% @qYZZE",
"gI5---;;;;;;;;;-=;qYZZE",
"gI5;;;;;;;;;;;;;;;qYZZE",
"gI52e;;;;;<e<;;;;;qYZZE",
"gI54ky<;;;<jd<;;=;qYZZE",
"gP54Fni>;;2mSu<;;;qYZZE",
"gP54FLmi>;>mPAd<=;qYZZE",
"gP54FPPme><mIIAp<;qYZZE",
"gP55FPPJa42mIILdq=qYZZE",
"gI64FLHd9;<mIJcq;;qYZZE",
"gI54FHc4;;1mLvw;;=qYZZE",
"gP54Mj0;;;1bvw>;;;qYZZE",
"gL54a9;;;;<aw;;;;;qYZZE",
"gP5>3;;;;;>3>;;;;=qYZZE",
"gP5;;;;;;;;;;;;;;;qYZZE",
"gP6%X;;;;;;;;;;=X&qYZZE",
"gP5O.;;;;;;;;;;&.$qTUUE",
"gPf;;;;;;;;;;;;;;=;VVVV",
"gPJlllllllllllllll84CN@"
};
