/* XPM */
static char *_d95184661c14b48f0f574da4b364ed9LoxUxv7jyFL9D2NL[] = {
/* columns rows colors chars-per-pixel */
"24 23 93 2 ",
"   c black",
".  c #070802",
"X  c #061F03",
"o  c gray12",
"O  c #0B3B05",
"+  c #1F2D1E",
"@  c #1F331D",
"#  c #1F3C1C",
"$  c #253D1D",
"%  c #2A2D20",
"&  c #20471B",
"*  c #20491B",
"=  c #224D1B",
"-  c #314D1F",
";  c #205819",
":  c #205919",
">  c #205B19",
",  c #205E18",
"<  c #15710A",
"1  c #206717",
"2  c #206D17",
"3  c #206518",
"4  c #396E1D",
"5  c #207A15",
"6  c #2A7319",
"7  c #30741A",
"8  c #4E5A25",
"9  c #476F21",
"0  c #4A7321",
"q  c #557224",
"w  c #223F69",
"e  c #265F6C",
"r  c #2C7E6E",
"t  c #476C78",
"y  c #537B79",
"u  c #19850C",
"i  c #208215",
"p  c #208414",
"a  c #208714",
"s  c #218D13",
"d  c #268E15",
"f  c #219712",
"g  c #299015",
"h  c #2F9217",
"j  c #299615",
"k  c #2E9616",
"l  c #219B12",
"z  c #219C12",
"x  c #21A211",
"c  c #23A112",
"v  c #21A411",
"b  c #21A910",
"n  c #21AA10",
"m  c #21AD10",
"M  c #25AE11",
"N  c #2AAF12",
"B  c #29B012",
"V  c #34B314",
"C  c #3DB616",
"Z  c #44901C",
"A  c #4CA71C",
"S  c #43AC19",
"D  c #52A51E",
"F  c #56AC1E",
"G  c #41B617",
"H  c #48BA19",
"J  c #53BE1B",
"K  c #5D9822",
"L  c #6C9626",
"P  c #68B721",
"I  c #6EBC22",
"U  c #7FBC27",
"Y  c #5CC11D",
"T  c #62C21E",
"R  c #64C31F",
"E  c #7ACA24",
"W  c #7ECC25",
"Q  c #64907B",
"!  c #8BB72A",
"~  c #83CD26",
"^  c #8BCF28",
"/  c #8CCF28",
"(  c #8BD028",
")  c #8CD028",
"_  c #90D229",
"`  c #96D42A",
"'  c #A3D82D",
"]  c #B5DE31",
"[  c #2D5880",
"{  c #305E99",
"}  c #3261A8",
"|  c #406E9B",
" . c #578486",
/* pixels */
"} } } } } } } } } } } } } } } } } } } } } } } } ",
"| Q Q Q Q Q Q Q Q Q Q t { r r r e w Q Q Q Q Q y ",
" .W J J J J J J J J J 4 [ u O O X . ` J J J J Z ",
" .T b s s s s s s x m 3 [ <       . ~ l s s v a ",
" .T l # 1 @ 1 @ 1 D M 3 [ <       . ~ ; , 1 F p ",
" .T l : m & m & m ~ G q [ <       . ^ : l m ^ L ",
" .T l : m & m & m ~ g o [ <       . ~ : z m ^ o ",
" .T l : m & m & m ~ g o [ <       . ^ : z m ^ o ",
" .T z : m & m & m ~ j + [ <       . ~ : l m ^ @ ",
" .R l : m & m * m ~ B 3 [ <       . ^ : z m ^ i ",
" .T b A ^ ! ( ! ( ' B 3 [ <       . ~ : U ( ' a ",
" .T B H h m m m m m m 3 [ <       . ( C d m m a ",
" .T V ] 8 b m m m m m 3 [ <       . ~ E - m m i ",
" .T x - $ b m m m m m 3 [ <       . ^ 6 = m m a ",
" .T x 2 2 2 2 2 2 f m 3 [ <       . ^ a 2 2 l i ",
" .T z * a # a # a P N 3 [ <       . ~ : 5 a I a ",
" .T l : m & m & m ~ N 3 [ <       . ~ : l m ) a ",
" .T l : m & m & m ~ C 0 [ <       . ~ ; z M / K ",
" .T l : m & m & m ~ k % [ <       . ~ ; l b / $ ",
" .T l : m & m & m ~ g o [ <       . / : l b / o ",
" .T l : m & m & m ~ g o [ <       . ~ : l M / o ",
" .T x 7 H 9 H 9 H _ N 3 [ <       . ~ 2 S H ` i ",
" .T m C R R R R R R M 3 [ <       . / m Y R R i "
};
