/* XPM */
static char *_a175c2ac35c4cc1debcdbd1d4581eadC6o8PjClJOpz6r5U[] = {
/* columns rows colors chars-per-pixel */
"34 34 126 2 ",
"   c #21AD10",
".  c #26AE1A",
"X  c #26B016",
"o  c #2AB21B",
"O  c #2BAE23",
"+  c #31AF2E",
"@  c #2DB222",
"#  c #31B623",
"$  c #33B42C",
"%  c #39B62A",
"&  c #37B92B",
"*  c #39BA2C",
"=  c #3EBD32",
"-  c #37B03B",
";  c #41BD35",
":  c #41BB3C",
">  c #49BC3B",
",  c #46C23B",
"<  c #49C33E",
"1  c #3DB045",
"2  c #2B8169",
"3  c #308172",
"4  c #46BA47",
"5  c #4ABE43",
"6  c #42B34C",
"7  c #45B849",
"8  c #44B153",
"9  c #4CBA54",
"0  c #4AB25F",
"q  c #4CB262",
"w  c #4EB368",
"e  c #50B36C",
"r  c #57B96F",
"t  c #5FBD69",
"y  c #53B371",
"u  c #5BBC72",
"i  c #58B47A",
"p  c #62BD73",
"a  c #4CC542",
"s  c #4FC24F",
"d  c #50C647",
"f  c #5BC24E",
"g  c #54C94B",
"h  c #5DC553",
"j  c #5CCD55",
"k  c #5FD059",
"l  c #6AC85F",
"z  c #62D15C",
"x  c #58C262",
"c  c #60CA64",
"v  c #6DCB63",
"b  c #61C968",
"n  c #67D462",
"m  c #69D564",
"M  c #6DD769",
"N  c #73DA6F",
"B  c #61C570",
"V  c #66CA71",
"C  c #71D674",
"Z  c #74DB72",
"A  c #78DD76",
"S  c #7BDF7A",
"D  c #7EE17D",
"F  c #87D37E",
"G  c #82DF7F",
"H  c #4977B8",
"J  c #418393",
"K  c #5DB483",
"L  c #63BA86",
"P  c #62B58D",
"I  c #66B695",
"U  c #6AB69D",
"Y  c #6DB99D",
"T  c #5085AF",
"R  c #5185B1",
"E  c #6EB7A5",
"W  c #72B7AC",
"Q  c #75B7B1",
"!  c #77BAB4",
"~  c #7FDE83",
"^  c #5B87C4",
"/  c #6A95CF",
"(  c #7EB8C4",
")  c #85CE89",
"_  c #8BD884",
"`  c #94D78C",
"'  c #83E383",
"]  c #8AE78B",
"[  c #8EE98F",
"{  c #92EC94",
"}  c #97EE99",
"|  c #99EE9B",
" . c #9AF09E",
".. c #A7DEA0",
"X. c #9CF1A0",
"o. c #A5EDA6",
"O. c #B0E2AC",
"+. c #A2F4A6",
"@. c #A4F6AA",
"#. c #A9F8AE",
"$. c #BBE6B5",
"%. c #ACFAB3",
"&. c #B5FFBD",
"*. c #C1E8BC",
"=. c #82B9CB",
"-. c #86B9D3",
";. c #88BAD6",
":. c #8BBADB",
">. c #8EBAE2",
",. c #90BBE7",
"<. c #93BBEC",
"1. c #BBFFC2",
"2. c #C5EAC1",
"3. c #CAECC6",
"4. c #C5FFCB",
"5. c #C8FFCE",
"6. c #CBFFD0",
"7. c #D7F0D4",
"8. c #DFF3DC",
"9. c #D4FFD9",
"0. c #E0FFE3",
"q. c #E6FFE8",
"w. c #EAFFEC",
"e. c #F5FEF6",
"r. c #F7FFF8",
"t. c white",
/* pixels */
"H ^ ^ ^ ^ ^ ^ ^ ^ ^ ^ ^ ^ ^ R 2 T ^ ^ 3 J ^ ^ ^ ^ ^ ^ ^ ^ ^ ^ ^ ^ ^ ",
"/ <.<.<.<.<.<.<.<.<.<.<.<.<.p $.t 8 8 O.) ( <.<.<.<.<.<.<.<.<.<.<.<.",
"/ <.<.<.<.<.<.<.<.:.Q E $ $ 8.*.8.  ..3.8.f   e Q =.<.<.<.<.<.<.<.<.",
"/ <.<.<.<.<.<.<.<.q a N ] g *.  *.  O.% F 9       ; =.<.<.<.<.<.<.<.",
"/ <.<.<.<.<.<.Y 7 d #.#.G o 2.% *.  ..> ` l       . : r >.<.<.<.<.<.",
"/ <.<.<.<.<.Y D 6.w.| #     O.t.$.j _ e.7.;       z &.X.p :.<.<.<.<.",
"/ <.<.<.<.U ~ 5.r.6.n X     o l G &.| v >       # | &.1.| u <.<.<.<.",
"/ <.,.,.U ' 5.r.6.&.%.*         { &.&.#         | &.&.&.&.@.u :.<.<.",
"/ <.<.<.a 5.e.6.&.&.&.A         { &.&.@       a %.&.&.&.&.&.S E <.<.",
"/ <.,.e h e.6.&.&.&.&.%.X     . : 4 a @     X D &.&.&.&.&.%.Z + :.<.",
"/ <.I , &.| ] &.&.&.&.%.j 1 0 E <.<.<.-.0 0 d &.&.&.&.&.} @     1 <.",
"/ ,.P ]  .* X g | &.&.n 1 -.<.<.<.<.<.<.<.,.L [ &.&.&.h *       1 <.",
"/ -.$ { A       o , z 1 >.<.<.<.<.<.<.<.<.<.,.L [ n o             P ",
"/ =.k &.            1 ;.<.<.<.<.<.<.<.<.<.<.<.<.i                 K ",
"/ 8 n 1.            i <.<.<.<.<.<.<.<.<.<.<.<.<.=.            X o $ ",
"/ 4 9.t.g g a     O E <.<.<.<.<.<.<.<.<.<.<.<.,.;.-   X * g d } &.n ",
"/ 4 9.0.&.&.%.G S 6 <.<.<.<.<.<.<.<.<.<.<.<.<.<.<.P z S  .&.&.&.&.n ",
"/ 4 9.5.&.&.&.&.&.6 <.<.<.<.<.<.<.<.<.<.<.<.<.<.<.P ] 1.&.&.&.&.&.n ",
"/ 4 4.4.&.&.&.&.&.6 <.<.<.<.<.<.<.<.<.<.<.<.<.<.<.P ] w.&.&.&.&.&.n ",
"/ 4 &.&.&.&.@., , 6 <.<.<.<.<.<.<.<.<.<.<.<.<.<.<.P = o.G &.&.&. .$ ",
"/ : ] ]             i <.<.<.<.<.<.<.<.<.<.<.<.<.=.  ] M       n C   ",
"/ P                 L <.<.<.<.<.<.<.<.<.<.<.<.<.=., @.            8 ",
"/ =.              . : Q <.<.<.<.<.<.<.<.<.<.<.:.9 M @.            K ",
"/ ;.1           < Z &.C Q <.<.<.<.<.<.<.<.<.-.B %.9.G           O Q ",
"/ <.P       o [ @.&.&.%.C ! <.<.<.<.<.<.<.,.x @.q.w.1.] d       1 <.",
"/ <.W O o 5 +.&.&.&.&.&.n     q Q Q W I   ; m 0.q.&.&.&.&.j *   y <.",
"/ <.<.E a &.&.&.&.&.&.#.        z N Z * Z @. .o.1.&.&.&.&.%.< q <.<.",
"/ <.<.<.s %.&.&.&.&.&.d         { 5.w.| N * # # @.&.&.&.&.| . W <.<.",
"/ <.<.<.=.V %.&.&.&.| $       ; +.&.&.j         Z &.&.&.{ & U <.<.<.",
"/ <.<.<.<.( c &.&.X.*         m &.&.&. .        o S &. .& I <.<.<.<.",
"/ <.<.<.<.<.;.b { Z           n &.&.&. .          d , O U <.<.<.<.<.",
"/ <.<.<.<.<.<.( K           # { &.&.&.#.<           q E <.<.<.<.<.<.",
"/ <.<.<.<.<.<.<.<.U O O     = &.&.&.&.#.m     . O w >.<.<.<.<.<.<.<.",
"/ <.<.<.<.<.<.<.<.<.<.>.q q & D ' S D o   6 q Q <.<.<.<.<.<.<.<.<.<."
};
