/* XPM */
static char *_b97c57d51194c7eb70456a39ff87506XE09tFE5ZB2kVL4H[] = {
/* columns rows colors chars-per-pixel */
"24 23 175 2 ",
"   c black",
".  c #020506",
"X  c #020508",
"o  c #04070C",
"O  c #04090A",
"+  c #040A0B",
"@  c #040B0C",
"#  c #050E0F",
"$  c #060C14",
"%  c #071113",
"&  c #071214",
"*  c #081315",
"=  c #081416",
"-  c #081218",
";  c #091618",
":  c #0A171E",
">  c #0B1B1E",
",  c #0D1C1F",
"<  c #0B1D20",
"1  c #0C1E21",
"2  c #0E1C30",
"3  c #0F1D31",
"4  c #0D2023",
"5  c #0D2024",
"6  c #0D2125",
"7  c #0E2225",
"8  c #0E2427",
"9  c #0F2529",
"0  c #10282B",
"q  c #10292D",
"w  c #112B2F",
"e  c #1B2828",
"r  c #1F2B2A",
"t  c #1D2E2F",
"y  c #122D31",
"u  c #172E32",
"i  c #133035",
"p  c #143136",
"a  c #1E3132",
"s  c #143039",
"d  c #153439",
"f  c #16373D",
"g  c #193438",
"h  c #17393F",
"j  c #212F2F",
"k  c #253B3C",
"l  c #162A48",
"z  c #162A49",
"x  c #172C4D",
"c  c #173A40",
"v  c #183B41",
"b  c #183C42",
"n  c #193E44",
"m  c #1B3B53",
"M  c #243E41",
"N  c #203F6C",
"B  c #1B444A",
"V  c #1C444F",
"C  c #1C474E",
"Z  c #1D484F",
"A  c #1D4950",
"S  c #1E4A51",
"D  c #1E4C53",
"F  c #1E4854",
"G  c #1F4F57",
"H  c #244043",
"J  c #2A4041",
"K  c #274548",
"L  c #2A4649",
"P  c #244A4F",
"I  c #2B494B",
"U  c #28484C",
"Y  c #3B4743",
"T  c #3C4A47",
"R  c #324A4B",
"E  c #314E4F",
"W  c #214F55",
"Q  c #235057",
"!  c #2C5257",
"~  c #205058",
"^  c #21535B",
"/  c #22515D",
"(  c #22575F",
")  c #23575F",
"_  c #365152",
"`  c #3F5857",
"'  c #30565A",
"]  c #204364",
"[  c #214B64",
"{  c #235962",
"}  c #245A63",
"|  c #245B64",
" . c #255C65",
".. c #25546E",
"X. c #265F68",
"o. c #355F63",
"O. c #234374",
"+. c #244F72",
"@. c #264E7E",
"#. c #265670",
"$. c #28587C",
"%. c #26616A",
"&. c #28656F",
"*. c #3D6365",
"=. c #326268",
"-. c #38696E",
";. c #296771",
":. c #2F6976",
">. c #2B647F",
",. c #376F77",
"<. c #386A70",
"1. c #3A6C72",
"2. c #32627B",
"3. c #387279",
"4. c #3D7379",
"5. c #3C757C",
"6. c #415755",
"7. c #445E5D",
"8. c #476464",
"9. c #4E6663",
"0. c #4A6C6C",
"q. c #506A67",
"w. c #566B67",
"e. c #596A65",
"r. c #566A6A",
"t. c #546E6B",
"y. c #5D726D",
"u. c #496F70",
"i. c #4E6878",
"p. c #4F7170",
"a. c #43777C",
"s. c #587876",
"d. c #507B7D",
"f. c #6A7F79",
"g. c #6D837C",
"h. c #6E857F",
"j. c #284E88",
"k. c #2A5686",
"l. c #2C5C8C",
"z. c #2C5694",
"x. c #2C6581",
"c. c #2D6489",
"v. c #326284",
"b. c #2F6393",
"n. c #2F6394",
"m. c #326193",
"M. c #3A6D93",
"N. c #30629B",
"B. c #37689B",
"V. c #3C6C9D",
"C. c #486682",
"Z. c #417782",
"A. c #467B80",
"S. c #5E7F8F",
"D. c #427395",
"F. c #48709C",
"G. c #567994",
"H. c #537DAA",
"J. c #547DAA",
"K. c #528487",
"L. c #548688",
"P. c #5C8B8D",
"I. c #5D8C8D",
"U. c #6F8781",
"Y. c #6F8983",
"T. c #608A8A",
"R. c #6C8888",
"E. c #708680",
"W. c #738983",
"Q. c #718D87",
"!. c #74938E",
"~. c #7E978F",
"^. c #628F90",
"/. c #789D99",
"(. c #698FAB",
/* pixels */
"j.M.(.(.(.(.(.(.(.(.(.v.O.m.(.(.(.(.(.(.(.(.(.D.",
"N Z.y.j 5.5.-.<.k r ' , l x.!.r -.5.1.<.I r L g ",
"N Z.^.&.B n w 0 ( | ( # l x./.;.B n p 9 Z &.S 8 ",
"N Z.t.8 B B &.V 6 y { # l x.Q.6 B V | ( 6 9 ( 6 ",
"N / W S G 6 . 9 S G G @ l ..Q S G p . ; S S ~ > ",
"N o                     l 2                     ",
"F.R.U.g.h.*.; u.E.U.E.Q.G.P.W.h.h.p.; o.W.h.Q.W.",
"k.V d 9 v 0 & P.R f ;.X.+.[ h 8 y n   a.q.w ;.;.",
"k.V ( &.v 0 & I.A./ 9 q +.[ G ;.f n   a.I.%.9 9 ",
"l.S , < %.0 & K.J p X.G $.#.< > ( n   4.7.6 | ^ ",
"N - d h d = + d d d d O l 2 d d d 4   d d d f * ",
"N $ X X X . . . X X X X x q X X X X . . X X X X ",
"z.B.J.J.H.J.J.J.J.H.H.m.j.N.H.H.H.J.J.J.J.J.H.V.",
"N Z.f.T K.K.L.L.6.Y 0.u l c.~.Y d.K.L.L.8.Y 7.U ",
"N Z.T.| ( ( 8 > Z { | $ l x./.| ( ( p , n { ( 8 ",
"N Z.s.c p p %.Q h d W $ l x.!.f p y (  .c d B 9 ",
"N :.=.W ;.f > p S / &.# l >.1.S %.V > 9 S G &.6 ",
"N o                     l 2                     ",
"M.r.r.e.e.E & _ e.e.e.e.C.i.e.w.e.` = K e.e.e.e.",
"m.o.K e H g * P.T M 3.,.v.2.! r a P . a.w.t 3.3.",
"@.s Z &.S 0 & P.a.{ v d ] m v ;.Z n   a.I.&.c c ",
"n.| < 6 ^ 0 & P.L y W W c.x.< > B n   a.9.6 Z S ",
"N : S S S < # S S S S # x 2 S S S y   S S S S > "
};
